ffmpeg version 4.3.1-2021-01-01-full_build-www.gyan.dev Copyright (c) 2000-2021 the FFmpeg developers
  built with gcc 10.2.0 (Rev5, Built by MSYS2 project)
  configuration: --enable-gpl --enable-version3 --enable-static --disable-w32threads --disable-autodetect --enable-fontconfig --enable-iconv --enable-gnutls --enable-libxml2 --enable-gmp --enable-lzma --enable-libsnappy --enable-zlib --enable-libsrt --enable-libssh --enable-libzmq --enable-avisynth --enable-libbluray --enable-libcaca --enable-sdl2 --enable-libdav1d --enable-libzvbi --enable-librav1e --enable-libwebp --enable-libx264 --enable-libx265 --enable-libxvid --enable-libaom --enable-libopenjpeg --enable-libvpx --enable-libass --enable-frei0r --enable-libfreetype --enable-libfribidi --enable-libvidstab --enable-libvmaf --enable-libzimg --enable-amf --enable-cuda-llvm --enable-cuvid --enable-ffnvcodec --enable-nvdec --enable-nvenc --enable-d3d11va --enable-dxva2 --enable-libmfx --enable-libcdio --enable-libgme --enable-libmodplug --enable-libopenmpt --enable-libopencore-amrwb --enable-libmp3lame --enable-libshine --enable-libtheora --enable-libtwolame --enable-libvo-amrwbenc --enable-libilbc --enable-libgsm --enable-libopencore-amrnb --enable-libopus --enable-libspeex --enable-libvorbis --enable-ladspa --enable-libbs2b --enable-libflite --enable-libmysofa --enable-librubberband --enable-libsoxr --enable-chromaprint
  libavutil      56. 51.100 / 56. 51.100
  libavcodec     58. 91.100 / 58. 91.100
  libavformat    58. 45.100 / 58. 45.100
  libavdevice    58. 10.100 / 58. 10.100
  libavfilter     7. 85.100 /  7. 85.100
  libswscale      5.  7.100 /  5.  7.100
  libswresample   3.  7.100 /  3.  7.100
  libpostproc    55.  7.100 / 55.  7.100
Input #0, dshow, from 'video=@device_sw_{860BB310-5D01-11D0-BD3B-00A0C911CE86}\{A3FCE0F5-3493-419F-958A-ABA1250EC20B}':
  Duration: N/A, start: 544429.677000, bitrate: N/A
    Stream #0:0: Video: rawvideo (NV12 / 0x3231564E), nv12, 1920x1080, 60 fps, 60 tbr, 10000k tbn, 10000k tbc
Stream mapping:
  Stream #0:0 -> #0:0 (rawvideo (native) -> h264 (libx264))
Press [q] to stop, [?] for help
[libx264 @ 000002232e79ac00] using cpu capabilities: MMX2 SSE2Fast SSSE3 SSE4.2 AVX FMA3 BMI2 AVX2
[libx264 @ 000002232e79ac00] profile High, level 4.2, 4:2:0, 8-bit
Output #0, h264, to 'pipe:1':
  Metadata:
    encoder         : Lavf58.45.100
    Stream #0:0: Video: h264 (libx264), nv12, 1920x1080, q=-1--1, 60 fps, 60 tbn, 60 tbc
    Metadata:
      encoder         : Lavc58.91.100 libx264
    Side data:
      cpb: bitrate max/min/avg: 0/0/0 buffer size: 0 vbv_delay: N/A
frame=   35 fps=0.0 q=0.0 size=       0kB time=00:00:00.00 bitrate=N/A speed=   0x    frame=   65 fps= 64 q=0.0 size=       0kB time=00:00:00.00 bitrate=N/A speed=   0x    frame=   95 fps= 63 q=31.0 size=      24kB time=00:00:00.24 bitrate= 801.7kbits/s speed=0.166x    frame=  126 fps= 62 q=31.0 size=      71kB time=00:00:00.76 bitrate= 755.8kbits/s speed=0.378x    frame=  157 fps= 62 q=31.0 size=      73kB time=00:00:01.28 bitrate= 468.2kbits/s speed=0.505x    frame=  187 fps= 61 q=31.0 size=      76kB time=00:00:01.78 bitrate= 348.1kbits/s speed=0.585x    frame=  217 fps= 61 q=31.0 size=      78kB time=00:00:02.28 bitrate= 280.7kbits/s speed=0.644x    frame=  248 fps= 61 q=31.0 size=      81kB time=00:00:02.79 bitrate= 236.3kbits/s speed=0.69x    frame=  279 fps= 61 q=31.0 size=      83kB time=00:00:03.31 bitrate= 205.6kbits/s speed=0.725x    frame=  309 fps= 61 q=31.0 size=      86kB time=00:00:03.81 bitrate= 184.0kbits/s speed=0.752x    frame=  339 fps= 61 q=29.0 size=      88kB time=00:00:04.31 bitrate= 167.3kbits/s speed=0.774x    frame=  369 fps= 61 q=31.0 size=      91kB time=00:00:04.81 bitrate= 154.1kbits/s speed=0.793x    frame=  399 fps= 61 q=31.0 size=     136kB time=00:00:05.31 bitrate= 208.9kbits/s speed=0.807x    frame=  430 fps= 61 q=31.0 size=     138kB time=00:00:05.83 bitrate= 193.7kbits/s speed=0.823x    frame=  461 fps= 61 q=31.0 size=     140kB time=00:00:06.34 bitrate= 181.0kbits/s speed=0.835x    frame=  491 fps= 61 q=31.0 size=     391kB time=00:00:06.84 bitrate= 468.1kbits/s speed=0.844x    frame=  521 fps= 60 q=31.0 size=     394kB time=00:00:07.34 bitrate= 439.3kbits/s speed=0.853x    frame=  552 fps= 60 q=31.0 size=     397kB time=00:00:07.86 bitrate= 413.5kbits/s speed=0.861x    frame=  583 fps= 60 q=31.0 size=     400kB time=00:00:08.38 bitrate= 390.5kbits/s speed=0.87x    frame=  613 fps= 60 q=31.0 size=     535kB time=00:00:08.88 bitrate= 493.1kbits/s speed=0.875x    frame=  644 fps= 60 q=31.0 size=     537kB time=00:00:09.39 bitrate= 468.0kbits/s speed=0.881x    frame=  675 fps= 60 q=31.0 size=     539kB time=00:00:09.91 bitrate= 445.6kbits/s speed=0.887x    frame=  706 fps= 60 q=31.0 size=     542kB time=00:00:10.43 bitrate= 425.3kbits/s speed=0.892x    frame=  737 fps= 60 q=31.0 size=     544kB time=00:00:10.94 bitrate= 407.0kbits/s speed=0.897x    frame=  767 fps= 60 q=31.0 size=     546kB time=00:00:11.44 bitrate= 390.8kbits/s speed=0.901x    frame=  797 fps= 60 q=31.0 size=     548kB time=00:00:11.94 bitrate= 376.0kbits/s speed=0.904x    frame=  827 fps= 60 q=31.0 size=     551kB time=00:00:12.44 bitrate= 362.3kbits/s speed=0.908x    frame=  858 fps= 60 q=31.0 size=     686kB time=00:00:12.96 bitrate= 433.4kbits/s speed=0.912x    frame=  889 fps= 60 q=31.0 size=     688kB time=00:00:13.48 bitrate= 418.2kbits/s speed=0.914x    frame=  920 fps= 60 q=31.0 size=     691kB time=00:00:13.99 bitrate= 404.1kbits/s speed=0.917x    frame=  951 fps= 60 q=31.0 size=     693kB time=00:00:14.51 bitrate= 391.0kbits/s speed=0.92x    frame=  981 fps= 60 q=31.0 size=     695kB time=00:00:15.01 bitrate= 379.2kbits/s speed=0.923x    frame= 1011 fps= 60 q=31.0 size=     698kB time=00:00:15.51 bitrate= 368.4kbits/s speed=0.925x    frame= 1041 fps= 60 q=31.0 size=     846kB time=00:00:16.01 bitrate= 432.5kbits/s speed=0.927x    frame= 1071 fps= 60 q=31.0 size=     848kB time=00:00:16.51 bitrate= 420.6kbits/s speed=0.929x    frame= 1102 fps= 60 q=31.0 size=     851kB time=00:00:17.03 bitrate= 409.1kbits/s speed=0.931x    frame= 1133 fps= 60 q=31.0 size=     853kB time=00:00:17.54 bitrate= 398.3kbits/s speed=0.933x    frame= 1163 fps= 60 q=31.0 size=     856kB time=00:00:18.04 bitrate= 388.4kbits/s speed=0.935x    frame= 1193 fps= 60 q=31.0 size=     858kB time=00:00:18.54 bitrate= 379.1kbits/s speed=0.937x    frame= 1224 fps= 60 q=31.0 size=     861kB time=00:00:19.06 bitrate= 369.9kbits/s speed=0.938x    frame= 1255 fps= 60 q=31.0 size=     864kB time=00:00:19.58 bitrate= 361.2kbits/s speed=0.94x    frame= 1285 fps= 60 q=31.0 size=    1011kB time=00:00:20.08 bitrate= 412.3kbits/s speed=0.94x    frame= 1316 fps= 60 q=31.0 size=    1013kB time=00:00:20.59 bitrate= 403.0kbits/s speed=0.943x    frame= 1346 fps= 60 q=31.0 size=    1016kB time=00:00:21.09 bitrate= 394.4kbits/s speed=0.944x    frame= 1376 fps= 60 q=31.0 size=    1018kB time=00:00:21.59 bitrate= 386.3kbits/s speed=0.945x    frame= 1406 fps= 60 q=31.0 size=    1021kB time=00:00:22.09 bitrate= 378.5kbits/s speed=0.946x    frame= 1436 fps= 60 q=31.0 size=    1024kB time=00:00:22.59 bitrate= 371.3kbits/s speed=0.947x    frame= 1466 fps= 60 q=31.0 size=    1063kB time=00:00:23.09 bitrate= 377.1kbits/s speed=0.948x    frame= 1497 fps= 60 q=31.0 size=    1066kB time=00:00:23.61 bitrate= 369.7kbits/s speed=0.95x    frame= 1527 fps= 60 q=31.0 size=    1068kB time=00:00:24.11 bitrate= 362.8kbits/s speed=0.95x    frame= 1558 fps= 60 q=31.0 size=    1070kB time=00:00:24.63 bitrate= 356.0kbits/s speed=0.951x    frame= 1588 fps= 60 q=31.0 size=    1073kB time=00:00:25.13 bitrate= 349.6kbits/s speed=0.952x    frame= 1619 fps= 60 q=31.0 size=    1075kB time=00:00:25.64 bitrate= 343.3kbits/s speed=0.953x    frame= 1650 fps= 60 q=31.0 size=    1077kB time=00:00:26.16 bitrate= 337.3kbits/s speed=0.954x    frame= 1680 fps= 60 q=31.0 size=    1080kB time=00:00:26.66 bitrate= 331.7kbits/s speed=0.955x    frame= 1711 fps= 60 q=31.0 size=    1118kB time=00:00:27.18 bitrate= 337.0kbits/s speed=0.955x    frame= 1742 fps= 60 q=31.0 size=    1121kB time=00:00:27.69 bitrate= 331.4kbits/s speed=0.956x    frame= 1772 fps= 60 q=31.0 size=    1123kB time=00:00:28.19 bitrate= 326.2kbits/s speed=0.957x    frame= 1802 fps= 60 q=31.0 size=    1125kB time=00:00:28.69 bitrate= 321.2kbits/s speed=0.958x    frame= 1833 fps= 60 q=31.0 size=    1128kB time=00:00:29.21 bitrate= 316.2kbits/s speed=0.958x    frame= 1863 fps= 60 q=31.0 size=    1155kB time=00:00:29.71 bitrate= 318.3kbits/s speed=0.959x    frame= 1893 fps= 60 q=31.0 size=    1157kB time=00:00:30.21 bitrate= 313.7kbits/s speed=0.96x    frame= 1924 fps= 60 q=31.0 size=    1159kB time=00:00:30.73 bitrate= 309.0kbits/s speed=0.961x    frame= 1954 fps= 60 q=31.0 size=    1161kB time=00:00:31.23 bitrate= 304.6kbits/s speed=0.961x    frame= 1984 fps= 60 q=31.0 size=    1163kB time=00:00:31.73 bitrate= 300.4kbits/s speed=0.962x    frame= 2014 fps= 60 q=31.0 size=    1166kB time=00:00:32.23 bitrate= 296.2kbits/s speed=0.962x    frame= 2044 fps= 60 q=31.0 size=    1171kB time=00:00:32.73 bitrate= 293.1kbits/s speed=0.963x    frame= 2075 fps= 60 q=31.0 size=    1174kB time=00:00:33.24 bitrate= 289.3kbits/s speed=0.963x    frame= 2105 fps= 60 q=31.0 size=    1177kB time=00:00:33.74 bitrate= 285.6kbits/s speed=0.964x    frame= 2135 fps= 60 q=31.0 size=    1179kB time=00:00:34.24 bitrate= 282.1kbits/s speed=0.964x    frame= 2165 fps= 60 q=31.0 size=    1181kB time=00:00:34.74 bitrate= 278.5kbits/s speed=0.965x    frame= 2195 fps= 60 q=31.0 size=    1183kB time=00:00:35.24 bitrate= 275.0kbits/s speed=0.965x    frame= 2226 fps= 60 q=31.0 size=    1186kB time=00:00:35.76 bitrate= 271.6kbits/s speed=0.966x    frame= 2257 fps= 60 q=31.0 size=    1188kB time=00:00:36.28 bitrate= 268.2kbits/s speed=0.967x    frame= 2287 fps= 60 q=31.0 size=    1190kB time=00:00:36.78 bitrate= 265.0kbits/s speed=0.967x    frame= 2317 fps= 60 q=31.0 size=    1192kB time=00:00:37.28 bitrate= 261.9kbits/s speed=0.967x    frame= 2347 fps= 60 q=31.0 size=    1194kB time=00:00:37.78 bitrate= 258.9kbits/s speed=0.968x    frame= 2378 fps= 60 q=31.0 size=    1197kB time=00:00:38.29 bitrate= 255.9kbits/s speed=0.968x    frame= 2408 fps= 60 q=31.0 size=    1202kB time=00:00:38.79 bitrate= 253.8kbits/s speed=0.968x    frame= 2439 fps= 60 q=31.0 size=    1204kB time=00:00:39.31 bitrate= 250.9kbits/s speed=0.969x    frame= 2469 fps= 60 q=31.0 size=    1206kB time=00:00:39.81 bitrate= 248.2kbits/s speed=0.969x    frame= 2500 fps= 60 q=31.0 size=    1209kB time=00:00:40.33 bitrate= 245.5kbits/s speed=0.97x    frame= 2530 fps= 60 q=31.0 size=    1237kB time=00:00:40.83 bitrate= 248.2kbits/s speed=0.97x    frame= 2560 fps= 60 q=31.0 size=    1240kB time=00:00:41.33 bitrate= 245.7kbits/s speed=0.97x    frame= 2590 fps= 60 q=31.0 size=    1242kB time=00:00:41.83 bitrate= 243.2kbits/s speed=0.971x    frame= 2620 fps= 60 q=31.0 size=    1244kB time=00:00:42.33 bitrate= 240.7kbits/s speed=0.971x    frame= 2652 fps= 60 q=31.0 size=    1246kB time=00:00:42.86 bitrate= 238.1kbits/s speed=0.971x    frame= 2682 fps= 60 q=31.0 size=    1248kB time=00:00:43.36 bitrate= 235.8kbits/s speed=0.972x    frame= 2712 fps= 60 q=31.0 size=    1251kB time=00:00:43.86 bitrate= 233.5kbits/s speed=0.972x    frame= 2742 fps= 60 q=31.0 size=    1253kB time=00:00:44.36 bitrate= 231.3kbits/s speed=0.972x    frame= 2772 fps= 60 q=31.0 size=    1298kB time=00:00:44.86 bitrate= 237.1kbits/s speed=0.973x    frame= 2803 fps= 60 q=31.0 size=    1301kB time=00:00:45.38 bitrate= 234.8kbits/s speed=0.973x    frame= 2834 fps= 60 q=31.0 size=    1303kB time=00:00:45.89 bitrate= 232.6kbits/s speed=0.973x    frame= 2865 fps= 60 q=31.0 size=    1305kB time=00:00:46.41 bitrate= 230.4kbits/s speed=0.973x    frame= 2895 fps= 60 q=31.0 size=    1308kB time=00:00:46.91 bitrate= 228.3kbits/s speed=0.974x    frame= 2926 fps= 60 q=31.0 size=    1310kB time=00:00:47.43 bitrate= 226.3kbits/s speed=0.974x    frame= 2956 fps= 60 q=31.0 size=    1312kB time=00:00:47.93 bitrate= 224.3kbits/s speed=0.974x    frame= 2986 fps= 60 q=31.0 size=    1315kB time=00:00:48.43 bitrate= 222.4kbits/s speed=0.975x    frame= 3017 fps= 60 q=31.0 size=    1317kB time=00:00:48.94 bitrate= 220.4kbits/s speed=0.975x    frame= 3048 fps= 60 q=31.0 size=    1362kB time=00:00:49.46 bitrate= 225.6kbits/s speed=0.975x    frame= 3078 fps= 60 q=31.0 size=    1364kB time=00:00:49.96 bitrate= 223.7kbits/s speed=0.975x    frame= 3108 fps= 60 q=31.0 size=    1367kB time=00:00:50.46 bitrate= 221.8kbits/s speed=0.976x    frame= 3138 fps= 60 q=31.0 size=    1618kB time=00:00:50.96 bitrate= 260.0kbits/s speed=0.976x    frame= 3168 fps= 60 q=31.0 size=    1621kB time=00:00:51.46 bitrate= 257.9kbits/s speed=0.976x    frame= 3199 fps= 60 q=31.0 size=    1623kB time=00:00:51.98 bitrate= 255.8kbits/s speed=0.976x    frame= 3230 fps= 60 q=31.0 size=    1626kB time=00:00:52.49 bitrate= 253.7kbits/s speed=0.977x    frame= 3261 fps= 60 q=31.0 size=    1761kB time=00:00:53.01 bitrate= 272.1kbits/s speed=0.977x    frame= 3291 fps= 60 q=31.0 size=    1763kB time=00:00:53.51 bitrate= 269.9kbits/s speed=0.977x    frame= 3321 fps= 60 q=31.0 size=    1921kB time=00:00:54.01 bitrate= 291.4kbits/s speed=0.977x    frame= 3352 fps= 60 q=31.0 size=    1962kB time=00:00:54.53 bitrate= 294.7kbits/s speed=0.977x    frame= 3382 fps= 60 q=31.0 size=    1965kB time=00:00:55.03 bitrate= 292.5kbits/s speed=0.978x    frame= 3413 fps= 60 q=31.0 size=    1968kB time=00:00:55.54 bitrate= 290.2kbits/s speed=0.978x    frame= 3443 fps= 60 q=31.0 size=    1971kB time=00:00:56.04 bitrate= 288.0kbits/s speed=0.978x    frame= 3473 fps= 60 q=31.0 size=    1974kB time=00:00:56.54 bitrate= 285.9kbits/s speed=0.978x    frame= 3504 fps= 60 q=31.0 size=    1979kB time=00:00:57.06 bitrate= 284.0kbits/s speed=0.978x    frame= 3534 fps= 60 q=31.0 size=    1981kB time=00:00:57.56 bitrate= 281.9kbits/s speed=0.979x    frame= 3564 fps= 60 q=31.0 size=    1983kB time=00:00:58.06 bitrate= 279.7kbits/s speed=0.979x    frame= 3595 fps= 60 q=31.0 size=    1985kB time=00:00:58.58 bitrate= 277.6kbits/s speed=0.979x    frame= 3625 fps= 60 q=31.0 size=    1987kB time=00:00:59.08 bitrate= 275.5kbits/s speed=0.979x    frame= 3655 fps= 60 q=31.0 size=    1989kB time=00:00:59.58 bitrate= 273.5kbits/s speed=0.979x    frame= 3686 fps= 60 q=31.0 size=    1991kB time=00:01:00.09 bitrate= 271.4kbits/s speed=0.98x    frame= 3716 fps= 60 q=29.0 size=    1993kB time=00:01:00.59 bitrate= 269.5kbits/s speed=0.98x    frame= 3746 fps= 60 q=31.0 size=    1995kB time=00:01:01.09 bitrate= 267.5kbits/s speed=0.98x    frame= 3776 fps= 60 q=31.0 size=    2000kB time=00:01:01.59 bitrate= 265.9kbits/s speed=0.98x    frame= 3807 fps= 60 q=31.0 size=    2002kB time=00:01:02.11 bitrate= 264.0kbits/s speed=0.98x    frame= 3837 fps= 60 q=31.0 size=    2004kB time=00:01:02.61 bitrate= 262.2kbits/s speed=0.98x    frame= 3868 fps= 60 q=31.0 size=    2006kB time=00:01:03.13 bitrate= 260.3kbits/s speed=0.981x    frame= 3898 fps= 60 q=31.0 size=    2008kB time=00:01:03.63 bitrate= 258.5kbits/s speed=0.98x    frame= 3928 fps= 60 q=31.0 size=    2010kB time=00:01:04.13 bitrate= 256.8kbits/s speed=0.981x    frame= 3959 fps= 60 q=31.0 size=    2012kB time=00:01:04.64 bitrate= 255.0kbits/s speed=0.981x    frame= 3989 fps= 60 q=31.0 size=    2014kB time=00:01:05.14 bitrate= 253.3kbits/s speed=0.981x    frame= 4019 fps= 60 q=31.0 size=    2019kB time=00:01:05.64 bitrate= 251.9kbits/s speed=0.981x    frame= 4050 fps= 60 q=31.0 size=    2021kB time=00:01:06.16 bitrate= 250.2kbits/s speed=0.981x    frame= 4080 fps= 60 q=31.0 size=    2023kB time=00:01:06.66 bitrate= 248.6kbits/s speed=0.981x    frame= 4110 fps= 60 q=31.0 size=    2025kB time=00:01:07.16 bitrate= 247.0kbits/s speed=0.981x    frame= 4140 fps= 60 q=31.0 size=    2027kB time=00:01:07.66 bitrate= 245.4kbits/s speed=0.982x    frame= 4171 fps= 60 q=31.0 size=    2029kB time=00:01:08.18 bitrate= 243.8kbits/s speed=0.982x    frame= 4202 fps= 60 q=31.0 size=    2031kB time=00:01:08.69 bitrate= 242.2kbits/s speed=0.982x    frame= 4232 fps= 60 q=31.0 size=    2033kB time=00:01:09.19 bitrate= 240.7kbits/s speed=0.982x    frame= 4262 fps= 60 q=31.0 size=    2038kB time=00:01:09.69 bitrate= 239.5kbits/s speed=0.982x    frame= 4292 fps= 60 q=31.0 size=    2040kB time=00:01:10.19 bitrate= 238.0kbits/s speed=0.982x    frame= 4322 fps= 60 q=31.0 size=    2042kB time=00:01:10.69 bitrate= 236.6kbits/s speed=0.982x    frame= 4352 fps= 60 q=31.0 size=    2044kB time=00:01:11.19 bitrate= 235.2kbits/s speed=0.983x    frame= 4382 fps= 60 q=31.0 size=    2046kB time=00:01:11.69 bitrate= 233.8kbits/s speed=0.983x    frame= 4412 fps= 60 q=31.0 size=    2048kB time=00:01:12.19 bitrate= 232.4kbits/s speed=0.983x    frame= 4443 fps= 60 q=31.0 size=    2050kB time=00:01:12.71 bitrate= 231.0kbits/s speed=0.983x    frame= 4473 fps= 60 q=31.0 size=    2052kB time=00:01:13.21 bitrate= 229.6kbits/s speed=0.983x    frame= 4503 fps= 60 q=31.0 size=    2057kB time=00:01:13.71 bitrate= 228.5kbits/s speed=0.983x    frame= 4533 fps= 60 q=31.0 size=    2059kB time=00:01:14.21 bitrate= 227.2kbits/s speed=0.983x    frame= 4564 fps= 60 q=31.0 size=    2061kB time=00:01:14.73 bitrate= 225.9kbits/s speed=0.983x    frame= 4595 fps= 60 q=31.0 size=    2063kB time=00:01:15.24 bitrate= 224.6kbits/s speed=0.983x    frame= 4626 fps= 60 q=31.0 size=    2065kB time=00:01:15.76 bitrate= 223.3kbits/s speed=0.984x    frame= 4656 fps= 60 q=31.0 size=    2067kB time=00:01:16.26 bitrate= 222.0kbits/s speed=0.984x    frame= 4686 fps= 60 q=31.0 size=    2069kB time=00:01:16.76 bitrate= 220.8kbits/s speed=0.984x    frame= 4717 fps= 60 q=31.0 size=    2071kB time=00:01:17.28 bitrate= 219.6kbits/s speed=0.984x    frame= 4748 fps= 60 q=31.0 size=    2074kB time=00:01:17.79 bitrate= 218.3kbits/s speed=0.984x    frame= 4779 fps= 60 q=31.0 size=    2078kB time=00:01:18.31 bitrate= 217.3kbits/s speed=0.984x    frame= 4810 fps= 60 q=31.0 size=    2080kB time=00:01:18.83 bitrate= 216.1kbits/s speed=0.984x    frame= 4840 fps= 60 q=31.0 size=    2082kB time=00:01:19.33 bitrate= 215.0kbits/s speed=0.984x    frame= 4870 fps= 60 q=31.0 size=    2084kB time=00:01:19.83 bitrate= 213.9kbits/s speed=0.984x    frame= 4901 fps= 60 q=31.0 size=    2086kB time=00:01:20.34 bitrate= 212.7kbits/s speed=0.985x    frame= 4931 fps= 60 q=31.0 size=    2088kB time=00:01:20.84 bitrate= 211.6kbits/s speed=0.985x    frame= 4962 fps= 60 q=31.0 size=    2091kB time=00:01:21.36 bitrate= 210.5kbits/s speed=0.985x    frame= 4992 fps= 60 q=31.0 size=    2093kB time=00:01:21.86 bitrate= 209.4kbits/s speed=0.985x    frame= 5023 fps= 60 q=31.0 size=    2097kB time=00:01:22.38 bitrate= 208.5kbits/s speed=0.985x    frame= 5053 fps= 60 q=31.0 size=    2099kB time=00:01:22.88 bitrate= 207.5kbits/s speed=0.985x    frame= 5084 fps= 60 q=31.0 size=    2101kB time=00:01:23.39 bitrate= 206.4kbits/s speed=0.985x    frame= 5115 fps= 60 q=31.0 size=    2103kB time=00:01:23.91 bitrate= 205.3kbits/s speed=0.985x    frame= 5145 fps= 60 q=31.0 size=    2105kB time=00:01:24.41 bitrate= 204.3kbits/s speed=0.985x    